<?xml version="1.0" standalone="no"?>
<!DOCTYPE svg PUBLIC "-//W3C//DTD SVG 20010904//EN"
 "http://www.w3.org/TR/2001/REC-SVG-20010904/DTD/svg10.dtd">
<svg version="1.0" xmlns="http://www.w3.org/2000/svg"
 width="856.000000pt" height="685.000000pt" viewBox="0 0 856.000000 685.000000"
 preserveAspectRatio="xMidYMid meet">

<g transform="translate(0.000000,685.000000) scale(0.100000,-0.100000)"
fill="#000000" stroke="none">
<path d="M0 3425 l0 -3425 4280 0 4280 0 0 3425 0 3425 -4280 0 -4280 0 0
-3425z m4417 3114 c248 -27 466 -133 649 -314 198 -195 313 -446 330 -718 5
-95 4 -105 -18 -147 -32 -58 -85 -90 -154 -90 -96 0 -158 66 -169 178 -22 233
-85 380 -225 523 -289 294 -756 304 -1060 23 -158 -147 -240 -336 -240 -554 0
-298 156 -552 424 -687 99 -50 199 -72 375 -84 171 -10 297 -34 411 -74 469
-170 801 -559 896 -1050 28 -141 25 -390 -4 -524 -121 -543 -531 -948 -1074
-1062 -146 -31 -391 -31 -533 -1 -138 29 -212 55 -341 117 -119 57 -274 167
-359 254 -27 28 -53 51 -57 51 -4 0 -9 -357 -11 -792 -3 -436 -6 -815 -8 -843
l-5 -50 -156 0 c-86 0 -155 2 -153 5 2 3 71 5 154 5 82 0 147 2 145 5 -3 3
-74 5 -157 5 l-152 0 -3 1340 c-3 1492 -4 1455 64 1667 39 119 110 270 151
319 77 92 230 73 282 -34 33 -67 27 -98 -39 -231 -36 -72 -71 -161 -87 -221
-23 -89 -26 -118 -26 -260 0 -132 3 -174 21 -237 58 -211 129 -335 277 -483
150 -150 274 -222 476 -277 71 -19 109 -23 244 -23 198 1 289 21 451 100 498
243 710 805 500 1321 -106 260 -346 486 -609 573 -121 40 -169 49 -346 61 -81
5 -179 16 -217 24 -520 111 -884 560 -884 1091 0 598 485 1087 1093 1104 26 0
91 -4 144 -10z m-72 -2920 c76 -14 121 -37 172 -89 61 -60 87 -120 91 -210 3
-58 -1 -88 -17 -130 -22 -59 -86 -135 -128 -151 -32 -12 -314 -12 -346 0 -35
13 -93 73 -119 124 -33 62 -33 212 0 279 26 53 90 121 136 146 24 12 103 35
147 41 3 1 32 -4 64 -10z"/>
<path d="M2935 771 c-3 -5 -2 -12 3 -15 5 -3 9 1 9 9 0 17 -3 19 -12 6z"/>
<path d="M2963 764 c0 -7 5 -12 11 -11 6 1 10 -3 9 -9 -1 -6 4 -11 12 -11 8 0
13 5 12 11 -1 6 3 10 9 9 6 -1 11 4 11 11 0 7 -6 13 -13 13 -7 0 -12 -3 -11
-6 1 -3 -2 -7 -8 -7 -5 -1 -9 1 -8 5 1 4 -4 8 -11 8 -7 0 -13 -6 -13 -13z"/>
<path d="M3043 764 c0 -7 5 -12 11 -11 6 1 10 -3 9 -9 -1 -6 4 -11 12 -11 8 0
13 5 12 11 -1 6 3 10 9 9 6 -1 11 4 11 11 0 7 -6 13 -13 13 -7 0 -12 -3 -11
-6 1 -3 -2 -7 -8 -7 -5 -1 -9 1 -8 5 1 4 -4 8 -11 8 -7 0 -13 -6 -13 -13z"/>
<path d="M3123 764 c0 -7 5 -12 11 -11 6 1 10 -3 9 -9 -1 -6 4 -11 12 -11 8 0
13 5 12 11 -1 6 3 10 9 9 6 -1 11 4 11 11 0 7 -6 13 -13 13 -7 0 -12 -3 -11
-6 1 -3 -2 -7 -8 -7 -5 -1 -9 1 -8 5 1 4 -4 8 -11 8 -7 0 -13 -6 -13 -13z"/>
<path d="M3203 764 c0 -7 5 -12 11 -11 6 1 10 -4 8 -11 -1 -8 2 -11 8 -7 8 5
8 11 1 19 -6 7 -9 15 -6 18 3 2 -1 5 -8 5 -8 0 -14 -6 -14 -13z"/>
</g>
</svg>
